<svg width="20" height="20" viewBox="0 0 20 20" fill="none" xmlns="http://www.w3.org/2000/svg">
<path d="M14.663 6.45834C15.2595 6.45834 15.743 5.97481 15.743 5.37834C15.743 4.78187 15.2595 4.29834 14.663 4.29834C14.0665 4.29834 13.583 4.78187 13.583 5.37834C13.583 5.97481 14.0665 6.45834 14.663 6.45834Z" fill="#050E15"/>
<path d="M10.001 5.49988C12.4827 5.49988 14.501 7.51813 14.501 9.99988C14.501 12.4816 12.4827 14.4999 10.001 14.4999C7.51923 14.4999 5.50098 12.4816 5.50098 9.99988C5.50098 7.51813 7.51923 5.49988 10.001 5.49988ZM10 7.74988C8.75912 7.74988 7.75 8.759 7.75 9.99988C7.75 11.2408 8.75912 12.2499 10 12.2499C11.2409 12.2499 12.25 11.2408 12.25 9.99988C12.25 8.759 11.2409 7.74988 10 7.74988Z" fill="#050E15"/>
<path d="M14.5 1C16.813 1 19 3.187 19 5.5V14.5C19 16.813 16.813 19 14.5 19H5.5C3.187 19 1 16.813 1 14.5V5.5C1 3.187 3.187 1 5.5 1H14.5ZM5.5 3.25C4.44812 3.25 3.25 4.44812 3.25 5.5V14.5C3.25008 15.5721 4.42791 16.75 5.5 16.75H14.5C15.5518 16.7498 16.7499 15.5518 16.75 14.5V5.5C16.75 4.4482 15.5518 3.25017 14.5 3.25H5.5Z" fill="#050E15"/>
</svg>
