<svg width="20" height="20" viewBox="0 0 20 20" fill="none" xmlns="http://www.w3.org/2000/svg">
<path d="M3.25001 5.50001C4.49266 5.50001 5.50002 4.49265 5.50002 3.25C5.50002 2.00736 4.49266 1 3.25001 1C2.00736 1 1 2.00736 1 3.25C1 4.49265 2.00736 5.50001 3.25001 5.50001Z" fill="#050E15"/>
<path d="M5.12502 6.99988H1.375C1.168 6.99988 1 7.16788 1 7.37488V18.6249C1 18.8319 1.168 18.9999 1.375 18.9999H5.12502C5.33202 18.9999 5.50002 18.8319 5.50002 18.6249V7.37488C5.50002 7.16788 5.33202 6.99988 5.12502 6.99988Z" fill="#050E15"/>
<path d="M16.2978 6.48329C14.695 5.93429 12.6903 6.41654 11.488 7.2813C11.4468 7.12005 11.2998 7.00005 11.125 7.00005H7.375C7.168 7.00005 7 7.16805 7 7.37505V18.6251C7 18.8321 7.168 19.0001 7.375 19.0001H11.125C11.332 19.0001 11.5 18.8321 11.5 18.6251V10.5401C12.106 10.0181 12.8868 9.85155 13.5258 10.1231C14.1453 10.3848 14.5 11.0238 14.5 11.8751V18.6251C14.5 18.8321 14.668 19.0001 14.875 19.0001H18.6251C18.8321 19.0001 19.0001 18.8321 19.0001 18.6251V11.1198C18.9573 8.03805 17.5076 6.8973 16.2978 6.48329Z" fill="#050E15"/>
</svg>
