<svg width="20" height="14" viewBox="0 0 20 14" fill="none" xmlns="http://www.w3.org/2000/svg">
<path fill-rule="evenodd" clip-rule="evenodd" d="M17.8324 0.436633C18.6888 0.667434 19.3633 1.34385 19.5931 2.20112C20.0198 3.76578 19.9999 7.02798 19.9999 7.02798C19.9999 7.02798 19.9969 10.2722 19.5831 11.8358C19.3503 12.6921 18.6728 13.3675 17.8174 13.5973C16.2525 14.007 9.99193 14 9.99193 14C9.99193 14 3.74835 13.993 2.16747 13.5634C1.31007 13.3326 0.635552 12.6561 0.405714 11.7999C-0.00399571 10.2512 0 6.99001 0 6.99001C0 6.99001 0.00399865 3.74479 0.416707 2.18014C0.648543 1.32387 1.34205 0.632464 2.18146 0.403661C3.74735 -0.00698673 10.0069 7.26341e-06 10.0069 7.26341e-06C10.0069 7.26341e-06 16.2675 0.00700129 17.8324 0.436633ZM8.0089 4.00142L8.00391 9.99627L13.2122 7.00384L8.0089 4.00142Z" fill="#050E15"/>
</svg>
